<svg width="649" height="305" viewBox="0 0 649 305" fill="none" xmlns="http://www.w3.org/2000/svg">
<path opacity="0.6" d="M95.4192 207.342V194.901H118.661V265.205H104.774V207.342H95.4192Z" fill="url(#paint0_linear_4_842)"/>
<path d="M27.1777 239.348C27.1777 240.448 27.0378 241.451 26.7578 242.356C26.4844 243.254 26.071 244.029 25.5176 244.68C24.9642 245.325 24.2708 245.823 23.4375 246.174C22.6042 246.526 21.6276 246.702 20.5078 246.702C19.3685 246.702 18.3789 246.526 17.5391 246.174C16.7057 245.823 16.0124 245.321 15.459 244.67C14.9121 244.019 14.502 243.241 14.2285 242.336C13.9551 241.431 13.8184 240.429 13.8184 239.329C13.8184 237.857 14.0592 236.575 14.541 235.481C15.0293 234.381 15.7682 233.528 16.7578 232.922C17.7539 232.31 19.0104 232.004 20.5273 232.004C22.0117 232.004 23.2454 232.307 24.2285 232.913C25.2116 233.518 25.9473 234.371 26.4355 235.471C26.9303 236.565 27.1777 237.857 27.1777 239.348ZM16.2793 239.348C16.2793 240.448 16.429 241.402 16.7285 242.209C17.028 243.01 17.487 243.629 18.1055 244.065C18.7305 244.495 19.5312 244.709 20.5078 244.709C21.4909 244.709 22.2917 244.495 22.9102 244.065C23.5286 243.629 23.9844 243.01 24.2773 242.209C24.5703 241.402 24.7168 240.448 24.7168 239.348C24.7168 237.675 24.3815 236.366 23.7109 235.422C23.0469 234.472 21.9857 233.997 20.5273 233.997C19.5508 233.997 18.7467 234.211 18.1152 234.641C17.4902 235.071 17.028 235.686 16.7285 236.487C16.429 237.281 16.2793 238.235 16.2793 239.348ZM35.5566 235.491C36.8392 235.491 37.8678 235.959 38.6426 236.897C39.4238 237.834 39.8145 239.228 39.8145 241.077C39.8145 242.301 39.6322 243.333 39.2676 244.172C38.9095 245.006 38.4049 245.637 37.7539 246.067C37.1094 246.49 36.3574 246.702 35.498 246.702C34.9512 246.702 34.4759 246.63 34.0723 246.487C33.6686 246.344 33.3236 246.158 33.0371 245.93C32.7507 245.696 32.5098 245.442 32.3145 245.168H32.1777C32.2103 245.429 32.2396 245.719 32.2656 246.038C32.2982 246.35 32.3145 246.637 32.3145 246.897V251.301H30.0098V235.696H31.8848L32.207 237.19H32.3145C32.5163 236.884 32.7604 236.601 33.0469 236.34C33.3398 236.08 33.6914 235.875 34.1016 235.725C34.5182 235.569 35.0033 235.491 35.5566 235.491ZM34.9414 237.366C34.3099 237.366 33.8021 237.493 33.418 237.747C33.0404 237.994 32.7637 238.368 32.5879 238.87C32.4186 239.371 32.3275 239.999 32.3145 240.754V241.077C32.3145 241.877 32.3958 242.558 32.5586 243.118C32.7279 243.671 33.0046 244.094 33.3887 244.387C33.7793 244.674 34.3066 244.817 34.9707 244.817C35.5306 244.817 35.9928 244.664 36.3574 244.358C36.7285 244.052 37.0052 243.616 37.1875 243.049C37.3698 242.483 37.4609 241.816 37.4609 241.047C37.4609 239.882 37.2526 238.977 36.8359 238.333C36.4258 237.688 35.7943 237.366 34.9414 237.366ZM46.7773 235.491C47.7409 235.491 48.5677 235.689 49.2578 236.086C49.9479 236.484 50.4785 237.047 50.8496 237.776C51.2207 238.505 51.4062 239.377 51.4062 240.393V241.624H44.1895C44.2155 242.672 44.4954 243.479 45.0293 244.045C45.5697 244.612 46.3249 244.895 47.2949 244.895C47.985 244.895 48.6035 244.83 49.1504 244.7C49.7038 244.563 50.2734 244.364 50.8594 244.104V245.969C50.319 246.223 49.7689 246.409 49.209 246.526C48.6491 246.643 47.9785 246.702 47.1973 246.702C46.1361 246.702 45.2018 246.497 44.3945 246.086C43.5938 245.67 42.9655 245.051 42.5098 244.231C42.0605 243.411 41.8359 242.392 41.8359 241.174C41.8359 239.963 42.041 238.935 42.4512 238.088C42.8613 237.242 43.4375 236.597 44.1797 236.155C44.9219 235.712 45.7878 235.491 46.7773 235.491ZM46.7773 237.219C46.0547 237.219 45.4688 237.454 45.0195 237.922C44.5768 238.391 44.3164 239.078 44.2383 239.983H49.1602C49.1536 239.443 49.0625 238.964 48.8867 238.547C48.7174 238.131 48.457 237.805 48.1055 237.571C47.7604 237.336 47.3177 237.219 46.7773 237.219ZM59.6289 235.491C60.8464 235.491 61.7936 235.806 62.4707 236.438C63.1543 237.063 63.4961 238.069 63.4961 239.456V246.506H61.2012V239.885C61.2012 239.045 61.0286 238.417 60.6836 238C60.3385 237.577 59.8047 237.366 59.082 237.366C58.0339 237.366 57.3047 237.688 56.8945 238.333C56.4909 238.977 56.2891 239.911 56.2891 241.135V246.506H53.9941V235.696H55.7812L56.1035 237.161H56.2305C56.4648 236.783 56.7546 236.474 57.0996 236.233C57.4512 235.986 57.8418 235.8 58.2715 235.676C58.7077 235.553 59.1602 235.491 59.6289 235.491ZM75.9277 244.846C76.2272 244.846 76.5234 244.82 76.8164 244.768C77.1094 244.709 77.3763 244.641 77.6172 244.563V246.301C77.3633 246.412 77.0345 246.506 76.6309 246.584C76.2272 246.663 75.8073 246.702 75.3711 246.702C74.7591 246.702 74.209 246.601 73.7207 246.399C73.2324 246.191 72.8451 245.836 72.5586 245.334C72.2721 244.833 72.1289 244.14 72.1289 243.254V237.444H70.6543V236.418L72.2363 235.608L72.9883 233.293H74.4336V235.696H77.5293V237.444H74.4336V243.225C74.4336 243.772 74.5703 244.179 74.8438 244.446C75.1172 244.713 75.4785 244.846 75.9277 244.846ZM82.1094 231.311V235.129C82.1094 235.527 82.0964 235.914 82.0703 236.292C82.0508 236.669 82.028 236.962 82.002 237.17H82.1289C82.3568 236.793 82.6367 236.484 82.9688 236.243C83.3008 235.995 83.6719 235.81 84.082 235.686C84.4987 235.562 84.9414 235.5 85.4102 235.5C86.237 235.5 86.9401 235.64 87.5195 235.92C88.099 236.194 88.5417 236.62 88.8477 237.2C89.1602 237.779 89.3164 238.531 89.3164 239.456V246.506H87.0215V239.885C87.0215 239.045 86.849 238.417 86.5039 238C86.1589 237.577 85.625 237.366 84.9023 237.366C84.2057 237.366 83.6523 237.512 83.2422 237.805C82.8385 238.092 82.5488 238.518 82.373 239.084C82.1973 239.644 82.1094 240.328 82.1094 241.135V246.506H79.8145V231.311H82.1094ZM96.8359 235.491C97.7995 235.491 98.6263 235.689 99.3164 236.086C100.007 236.484 100.537 237.047 100.908 237.776C101.279 238.505 101.465 239.377 101.465 240.393V241.624H94.248C94.2741 242.672 94.554 243.479 95.0879 244.045C95.6283 244.612 96.3835 244.895 97.3535 244.895C98.0436 244.895 98.6621 244.83 99.209 244.7C99.7624 244.563 100.332 244.364 100.918 244.104V245.969C100.378 246.223 99.8275 246.409 99.2676 246.526C98.7077 246.643 98.0371 246.702 97.2559 246.702C96.1947 246.702 95.2604 246.497 94.4531 246.086C93.6523 245.67 93.0241 245.051 92.5684 244.231C92.1191 243.411 91.8945 242.392 91.8945 241.174C91.8945 239.963 92.0996 238.935 92.5098 238.088C92.9199 237.242 93.4961 236.597 94.2383 236.155C94.9805 235.712 95.8464 235.491 96.8359 235.491ZM96.8359 237.219C96.1133 237.219 95.5273 237.454 95.0781 237.922C94.6354 238.391 94.375 239.078 94.2969 239.983H99.2188C99.2122 239.443 99.1211 238.964 98.9453 238.547C98.776 238.131 98.5156 237.805 98.1641 237.571C97.819 237.336 97.3763 237.219 96.8359 237.219ZM115.566 234.016C114.883 234.016 114.271 234.14 113.73 234.387C113.197 234.635 112.744 234.993 112.373 235.461C112.002 235.924 111.719 236.487 111.523 237.151C111.328 237.808 111.23 238.551 111.23 239.377C111.23 240.484 111.387 241.438 111.699 242.239C112.012 243.033 112.487 243.645 113.125 244.075C113.763 244.498 114.57 244.709 115.547 244.709C116.152 244.709 116.742 244.651 117.314 244.534C117.887 244.417 118.48 244.257 119.092 244.055V246.047C118.512 246.275 117.926 246.441 117.334 246.545C116.742 246.65 116.058 246.702 115.283 246.702C113.825 246.702 112.614 246.399 111.65 245.793C110.693 245.188 109.977 244.335 109.502 243.235C109.033 242.135 108.799 240.846 108.799 239.368C108.799 238.287 108.949 237.297 109.248 236.399C109.548 235.5 109.984 234.726 110.557 234.075C111.13 233.417 111.836 232.913 112.676 232.561C113.522 232.203 114.489 232.024 115.576 232.024C116.292 232.024 116.995 232.105 117.686 232.268C118.382 232.424 119.027 232.649 119.619 232.942L118.799 234.875C118.304 234.641 117.786 234.439 117.246 234.27C116.706 234.101 116.146 234.016 115.566 234.016ZM126.162 235.491C127.529 235.491 128.561 235.793 129.258 236.399C129.961 237.004 130.312 237.948 130.312 239.231V246.506H128.682L128.242 244.973H128.164C127.858 245.364 127.542 245.686 127.217 245.94C126.891 246.194 126.514 246.383 126.084 246.506C125.661 246.637 125.143 246.702 124.531 246.702C123.887 246.702 123.311 246.584 122.803 246.35C122.295 246.109 121.895 245.745 121.602 245.256C121.309 244.768 121.162 244.15 121.162 243.401C121.162 242.288 121.576 241.451 122.402 240.891C123.236 240.331 124.492 240.022 126.172 239.963L128.047 239.895V239.329C128.047 238.58 127.871 238.046 127.52 237.727C127.174 237.408 126.686 237.249 126.055 237.249C125.514 237.249 124.99 237.327 124.482 237.483C123.975 237.639 123.48 237.831 122.998 238.059L122.256 236.438C122.783 236.158 123.382 235.93 124.053 235.754C124.73 235.579 125.433 235.491 126.162 235.491ZM128.037 241.34L126.641 241.389C125.495 241.428 124.691 241.624 124.229 241.975C123.766 242.327 123.535 242.808 123.535 243.42C123.535 243.954 123.695 244.345 124.014 244.592C124.333 244.833 124.753 244.954 125.273 244.954C126.068 244.954 126.725 244.729 127.246 244.28C127.773 243.824 128.037 243.157 128.037 242.278V241.34ZM145.742 235.491C146.953 235.491 147.865 235.803 148.477 236.428C149.095 237.053 149.404 238.056 149.404 239.436V246.506H147.109V239.846C147.109 239.026 146.95 238.407 146.631 237.991C146.312 237.574 145.827 237.366 145.176 237.366C144.264 237.366 143.607 237.659 143.203 238.245C142.806 238.824 142.607 239.667 142.607 240.774V246.506H140.312V239.846C140.312 239.299 140.241 238.844 140.098 238.479C139.961 238.108 139.749 237.831 139.463 237.649C139.176 237.46 138.815 237.366 138.379 237.366C137.747 237.366 137.243 237.509 136.865 237.795C136.494 238.082 136.227 238.505 136.064 239.065C135.902 239.618 135.82 240.299 135.82 241.106V246.506H133.525V235.696H135.312L135.635 237.151H135.762C135.983 236.773 136.257 236.464 136.582 236.223C136.914 235.976 137.282 235.793 137.686 235.676C138.089 235.553 138.509 235.491 138.945 235.491C139.753 235.491 140.433 235.634 140.986 235.92C141.54 236.2 141.953 236.63 142.227 237.209H142.402C142.741 236.624 143.213 236.191 143.818 235.911C144.424 235.631 145.065 235.491 145.742 235.491ZM156.914 235.491C157.878 235.491 158.704 235.689 159.395 236.086C160.085 236.484 160.615 237.047 160.986 237.776C161.357 238.505 161.543 239.377 161.543 240.393V241.624H154.326C154.352 242.672 154.632 243.479 155.166 244.045C155.706 244.612 156.462 244.895 157.432 244.895C158.122 244.895 158.74 244.83 159.287 244.7C159.84 244.563 160.41 244.364 160.996 244.104V245.969C160.456 246.223 159.906 246.409 159.346 246.526C158.786 246.643 158.115 246.702 157.334 246.702C156.273 246.702 155.339 246.497 154.531 246.086C153.73 245.67 153.102 245.051 152.646 244.231C152.197 243.411 151.973 242.392 151.973 241.174C151.973 239.963 152.178 238.935 152.588 238.088C152.998 237.242 153.574 236.597 154.316 236.155C155.059 235.712 155.924 235.491 156.914 235.491ZM156.914 237.219C156.191 237.219 155.605 237.454 155.156 237.922C154.714 238.391 154.453 239.078 154.375 239.983H159.297C159.29 239.443 159.199 238.964 159.023 238.547C158.854 238.131 158.594 237.805 158.242 237.571C157.897 237.336 157.454 237.219 156.914 237.219ZM169.609 235.491C169.792 235.491 169.99 235.5 170.205 235.52C170.42 235.54 170.605 235.566 170.762 235.598L170.547 237.747C170.41 237.708 170.241 237.678 170.039 237.659C169.844 237.639 169.668 237.629 169.512 237.629C169.102 237.629 168.711 237.698 168.34 237.834C167.969 237.965 167.64 238.167 167.354 238.44C167.067 238.707 166.842 239.042 166.68 239.446C166.517 239.849 166.436 240.318 166.436 240.852V246.506H164.131V235.696H165.928L166.24 237.6H166.348C166.562 237.216 166.829 236.864 167.148 236.545C167.467 236.226 167.832 235.972 168.242 235.784C168.659 235.588 169.115 235.491 169.609 235.491ZM177.002 235.491C178.369 235.491 179.401 235.793 180.098 236.399C180.801 237.004 181.152 237.948 181.152 239.231V246.506H179.521L179.082 244.973H179.004C178.698 245.364 178.382 245.686 178.057 245.94C177.731 246.194 177.354 246.383 176.924 246.506C176.501 246.637 175.983 246.702 175.371 246.702C174.727 246.702 174.15 246.584 173.643 246.35C173.135 246.109 172.734 245.745 172.441 245.256C172.148 244.768 172.002 244.15 172.002 243.401C172.002 242.288 172.415 241.451 173.242 240.891C174.076 240.331 175.332 240.022 177.012 239.963L178.887 239.895V239.329C178.887 238.58 178.711 238.046 178.359 237.727C178.014 237.408 177.526 237.249 176.895 237.249C176.354 237.249 175.83 237.327 175.322 237.483C174.814 237.639 174.32 237.831 173.838 238.059L173.096 236.438C173.623 236.158 174.222 235.93 174.893 235.754C175.57 235.579 176.273 235.491 177.002 235.491ZM178.877 241.34L177.48 241.389C176.335 241.428 175.531 241.624 175.068 241.975C174.606 242.327 174.375 242.808 174.375 243.42C174.375 243.954 174.535 244.345 174.854 244.592C175.173 244.833 175.592 244.954 176.113 244.954C176.908 244.954 177.565 244.729 178.086 244.28C178.613 243.824 178.877 243.157 178.877 242.278V241.34ZM199.131 241.077C199.131 241.975 199.014 242.773 198.779 243.469C198.545 244.166 198.203 244.755 197.754 245.237C197.305 245.712 196.764 246.077 196.133 246.331C195.501 246.578 194.788 246.702 193.994 246.702C193.252 246.702 192.572 246.578 191.953 246.331C191.335 246.077 190.798 245.712 190.342 245.237C189.893 244.755 189.544 244.166 189.297 243.469C189.049 242.773 188.926 241.975 188.926 241.077C188.926 239.885 189.131 238.876 189.541 238.049C189.958 237.216 190.55 236.581 191.318 236.145C192.087 235.709 193.001 235.491 194.062 235.491C195.059 235.491 195.938 235.709 196.699 236.145C197.461 236.581 198.057 237.216 198.486 238.049C198.916 238.883 199.131 239.892 199.131 241.077ZM191.289 241.077C191.289 241.864 191.383 242.538 191.572 243.098C191.768 243.658 192.067 244.088 192.471 244.387C192.874 244.68 193.395 244.827 194.033 244.827C194.671 244.827 195.192 244.68 195.596 244.387C195.999 244.088 196.296 243.658 196.484 243.098C196.673 242.538 196.768 241.864 196.768 241.077C196.768 240.289 196.673 239.622 196.484 239.075C196.296 238.521 195.999 238.101 195.596 237.815C195.192 237.522 194.668 237.375 194.023 237.375C193.073 237.375 192.38 237.694 191.943 238.333C191.507 238.971 191.289 239.885 191.289 241.077ZM207.168 237.444H204.541V246.506H202.246V237.444H200.479V236.34L202.246 235.667V234.915C202.246 233.997 202.389 233.267 202.676 232.727C202.969 232.187 203.385 231.799 203.926 231.565C204.473 231.324 205.124 231.204 205.879 231.204C206.374 231.204 206.826 231.246 207.236 231.331C207.646 231.409 207.992 231.5 208.271 231.604L207.676 233.342C207.454 233.271 207.207 233.206 206.934 233.147C206.66 233.082 206.367 233.049 206.055 233.049C205.534 233.049 205.15 233.212 204.902 233.538C204.661 233.863 204.541 234.338 204.541 234.963V235.696H207.168V237.444ZM54.4727 262.696H56.9727L59.1895 268.868C59.2871 269.148 59.375 269.424 59.4531 269.698C59.5378 269.965 59.6094 270.228 59.668 270.489C59.7331 270.749 59.7852 271.01 59.8242 271.27H59.8828C59.9479 270.931 60.0391 270.554 60.1562 270.137C60.2799 269.714 60.4167 269.291 60.5664 268.868L62.6953 262.696H65.166L60.5273 274.991C60.2604 275.694 59.9316 276.293 59.541 276.788C59.1569 277.289 58.7012 277.667 58.1738 277.92C57.6465 278.181 57.0443 278.311 56.3672 278.311C56.0417 278.311 55.7585 278.292 55.5176 278.252C55.2767 278.22 55.0716 278.184 54.9023 278.145V276.309C55.0391 276.342 55.2116 276.371 55.4199 276.397C55.6283 276.423 55.8431 276.436 56.0645 276.436C56.4746 276.436 56.8294 276.355 57.1289 276.192C57.4284 276.029 57.6823 275.798 57.8906 275.499C58.099 275.206 58.2715 274.87 58.4082 274.493L58.7891 273.477L54.4727 262.696ZM76.377 268.077C76.377 268.975 76.2598 269.773 76.0254 270.469C75.791 271.166 75.4492 271.755 75 272.237C74.5508 272.712 74.0104 273.077 73.3789 273.331C72.7474 273.578 72.0345 273.702 71.2402 273.702C70.498 273.702 69.8177 273.578 69.1992 273.331C68.5807 273.077 68.0436 272.712 67.5879 272.237C67.1387 271.755 66.7904 271.166 66.543 270.469C66.2956 269.773 66.1719 268.975 66.1719 268.077C66.1719 266.885 66.377 265.876 66.7871 265.049C67.2038 264.216 67.7962 263.581 68.5645 263.145C69.3327 262.709 70.2474 262.491 71.3086 262.491C72.3047 262.491 73.1836 262.709 73.9453 263.145C74.707 263.581 75.3027 264.216 75.7324 265.049C76.1621 265.883 76.377 266.892 76.377 268.077ZM68.5352 268.077C68.5352 268.864 68.6296 269.538 68.8184 270.098C69.0137 270.658 69.3132 271.088 69.7168 271.387C70.1204 271.68 70.6413 271.827 71.2793 271.827C71.9173 271.827 72.4382 271.68 72.8418 271.387C73.2454 271.088 73.5417 270.658 73.7305 270.098C73.9193 269.538 74.0137 268.864 74.0137 268.077C74.0137 267.289 73.9193 266.622 73.7305 266.075C73.5417 265.521 73.2454 265.101 72.8418 264.815C72.4382 264.522 71.9141 264.375 71.2695 264.375C70.319 264.375 69.6257 264.694 69.1895 265.333C68.7533 265.971 68.5352 266.885 68.5352 268.077ZM88.4375 262.696V273.506H86.6309L86.3184 272.051H86.1914C85.9635 272.422 85.6738 272.732 85.3223 272.979C84.9707 273.22 84.5801 273.399 84.1504 273.516C83.7207 273.64 83.2682 273.702 82.793 273.702C81.9792 273.702 81.2826 273.565 80.7031 273.292C80.1302 273.012 79.6908 272.582 79.3848 272.002C79.0788 271.423 78.9258 270.674 78.9258 269.756V262.696H81.2305V269.327C81.2305 270.167 81.3997 270.795 81.7383 271.211C82.0833 271.628 82.6172 271.836 83.3398 271.836C84.0365 271.836 84.5898 271.693 85 271.407C85.4102 271.12 85.6999 270.697 85.8691 270.137C86.0449 269.577 86.1328 268.89 86.1328 268.077V262.696H88.4375ZM97.207 262.491C97.3893 262.491 97.5879 262.5 97.8027 262.52C98.0176 262.54 98.2031 262.566 98.3594 262.598L98.1445 264.747C98.0078 264.708 97.8385 264.678 97.6367 264.659C97.4414 264.639 97.2656 264.629 97.1094 264.629C96.6992 264.629 96.3086 264.698 95.9375 264.834C95.5664 264.965 95.2376 265.167 94.9512 265.44C94.6647 265.707 94.4401 266.042 94.2773 266.446C94.1146 266.849 94.0332 267.318 94.0332 267.852V273.506H91.7285V262.696H93.5254L93.8379 264.6H93.9453C94.1602 264.216 94.4271 263.864 94.7461 263.545C95.0651 263.226 95.4297 262.972 95.8398 262.784C96.2565 262.588 96.7122 262.491 97.207 262.491ZM111.104 262.491C112.386 262.491 113.415 262.959 114.189 263.897C114.971 264.834 115.361 266.228 115.361 268.077C115.361 269.301 115.179 270.333 114.814 271.172C114.456 272.006 113.952 272.637 113.301 273.067C112.656 273.49 111.904 273.702 111.045 273.702C110.498 273.702 110.023 273.63 109.619 273.487C109.215 273.344 108.87 273.158 108.584 272.93C108.298 272.696 108.057 272.442 107.861 272.168H107.725C107.757 272.429 107.786 272.719 107.812 273.038C107.845 273.35 107.861 273.637 107.861 273.897V278.301H105.557V262.696H107.432L107.754 264.19H107.861C108.063 263.884 108.307 263.601 108.594 263.34C108.887 263.08 109.238 262.875 109.648 262.725C110.065 262.569 110.55 262.491 111.104 262.491ZM110.488 264.366C109.857 264.366 109.349 264.493 108.965 264.747C108.587 264.994 108.311 265.368 108.135 265.87C107.965 266.371 107.874 266.999 107.861 267.754V268.077C107.861 268.877 107.943 269.558 108.105 270.118C108.275 270.671 108.551 271.094 108.936 271.387C109.326 271.674 109.854 271.817 110.518 271.817C111.077 271.817 111.54 271.664 111.904 271.358C112.275 271.052 112.552 270.616 112.734 270.049C112.917 269.483 113.008 268.816 113.008 268.047C113.008 266.882 112.799 265.977 112.383 265.333C111.973 264.688 111.341 264.366 110.488 264.366ZM120.312 258.311V262.129C120.312 262.527 120.299 262.914 120.273 263.292C120.254 263.669 120.231 263.962 120.205 264.17H120.332C120.56 263.793 120.84 263.484 121.172 263.243C121.504 262.995 121.875 262.81 122.285 262.686C122.702 262.562 123.145 262.5 123.613 262.5C124.44 262.5 125.143 262.64 125.723 262.92C126.302 263.194 126.745 263.62 127.051 264.2C127.363 264.779 127.52 265.531 127.52 266.456V273.506H125.225V266.885C125.225 266.045 125.052 265.417 124.707 265C124.362 264.577 123.828 264.366 123.105 264.366C122.409 264.366 121.855 264.512 121.445 264.805C121.042 265.092 120.752 265.518 120.576 266.084C120.4 266.644 120.312 267.328 120.312 268.135V273.506H118.018V258.311H120.312ZM140.303 268.077C140.303 268.975 140.186 269.773 139.951 270.469C139.717 271.166 139.375 271.755 138.926 272.237C138.477 272.712 137.936 273.077 137.305 273.331C136.673 273.578 135.96 273.702 135.166 273.702C134.424 273.702 133.743 273.578 133.125 273.331C132.507 273.077 131.969 272.712 131.514 272.237C131.064 271.755 130.716 271.166 130.469 270.469C130.221 269.773 130.098 268.975 130.098 268.077C130.098 266.885 130.303 265.876 130.713 265.049C131.13 264.216 131.722 263.581 132.49 263.145C133.258 262.709 134.173 262.491 135.234 262.491C136.23 262.491 137.109 262.709 137.871 263.145C138.633 263.581 139.229 264.216 139.658 265.049C140.088 265.883 140.303 266.892 140.303 268.077ZM132.461 268.077C132.461 268.864 132.555 269.538 132.744 270.098C132.939 270.658 133.239 271.088 133.643 271.387C134.046 271.68 134.567 271.827 135.205 271.827C135.843 271.827 136.364 271.68 136.768 271.387C137.171 271.088 137.467 270.658 137.656 270.098C137.845 269.538 137.939 268.864 137.939 268.077C137.939 267.289 137.845 266.622 137.656 266.075C137.467 265.521 137.171 265.101 136.768 264.815C136.364 264.522 135.84 264.375 135.195 264.375C134.245 264.375 133.551 264.694 133.115 265.333C132.679 265.971 132.461 266.885 132.461 268.077ZM148.574 262.491C149.792 262.491 150.739 262.806 151.416 263.438C152.1 264.063 152.441 265.069 152.441 266.456V273.506H150.146V266.885C150.146 266.045 149.974 265.417 149.629 265C149.284 264.577 148.75 264.366 148.027 264.366C146.979 264.366 146.25 264.688 145.84 265.333C145.436 265.977 145.234 266.911 145.234 268.135V273.506H142.939V262.696H144.727L145.049 264.161H145.176C145.41 263.783 145.7 263.474 146.045 263.233C146.396 262.986 146.787 262.8 147.217 262.676C147.653 262.553 148.105 262.491 148.574 262.491ZM159.961 262.491C160.924 262.491 161.751 262.689 162.441 263.086C163.132 263.484 163.662 264.047 164.033 264.776C164.404 265.505 164.59 266.377 164.59 267.393V268.624H157.373C157.399 269.672 157.679 270.479 158.213 271.045C158.753 271.612 159.508 271.895 160.479 271.895C161.169 271.895 161.787 271.83 162.334 271.7C162.887 271.563 163.457 271.364 164.043 271.104V272.969C163.503 273.223 162.952 273.409 162.393 273.526C161.833 273.643 161.162 273.702 160.381 273.702C159.32 273.702 158.385 273.497 157.578 273.086C156.777 272.67 156.149 272.051 155.693 271.231C155.244 270.411 155.02 269.392 155.02 268.174C155.02 266.963 155.225 265.935 155.635 265.088C156.045 264.242 156.621 263.597 157.363 263.155C158.105 262.712 158.971 262.491 159.961 262.491ZM159.961 264.219C159.238 264.219 158.652 264.454 158.203 264.922C157.76 265.391 157.5 266.078 157.422 266.983H162.344C162.337 266.443 162.246 265.964 162.07 265.547C161.901 265.131 161.641 264.805 161.289 264.571C160.944 264.336 160.501 264.219 159.961 264.219Z" fill="#6C6C6C"/>
<rect x="59.5438" y="2.01598" width="109.9" height="175.749" rx="25.7922" stroke="#E3B6D0" stroke-width="3.96804"/>
<rect x="59.7958" y="27.6317" width="109.447" height="123.009" fill="white" stroke="#E3B6D0" stroke-width="3.96804"/>
<rect x="82.1212" y="57.4674" width="64.7443" height="64.7443" fill="white" stroke="#ABABAB" stroke-width="3.96804"/>
<rect x="80.1372" y="66.9873" width="68.7123" height="45.8082" fill="white"/>
<rect x="90.1587" y="124.875" width="70.7737" height="45.8082" transform="rotate(-90 90.1587 124.875)" fill="white"/>
<path d="M114.493 95.6176C117.656 95.6176 120.219 93.054 120.219 89.8916C120.219 86.7292 117.656 84.1655 114.493 84.1655C111.331 84.1655 108.767 86.7292 108.767 89.8916C108.767 93.054 111.331 95.6176 114.493 95.6176Z" fill="#707070"/>
<path d="M129.763 74.622H123.712L121.346 72.0453C120.639 71.2628 119.609 70.8047 118.54 70.8047H110.447C109.378 70.8047 108.348 71.2628 107.622 72.0453L105.275 74.622H99.2241C97.1245 74.622 95.4067 76.3398 95.4067 78.4394V101.343C95.4067 103.443 97.1245 105.161 99.2241 105.161H129.763C131.862 105.161 133.58 103.443 133.58 101.343V78.4394C133.58 76.3398 131.862 74.622 129.763 74.622ZM114.493 99.4348C109.226 99.4348 104.95 95.1594 104.95 89.8914C104.95 84.6235 109.226 80.3481 114.493 80.3481C119.761 80.3481 124.037 84.6235 124.037 89.8914C124.037 95.1594 119.761 99.4348 114.493 99.4348Z" fill="#707070"/>
<path opacity="0.6" d="M308.416 249.968C314.588 244.825 319.506 240.549 323.171 237.142C326.836 233.67 329.89 230.07 332.333 226.341C334.776 222.612 335.997 218.947 335.997 215.347C335.997 212.068 335.226 209.496 333.683 207.632C332.14 205.767 329.761 204.835 326.546 204.835C323.332 204.835 320.856 205.928 319.121 208.114C317.385 210.236 316.485 213.161 316.42 216.89H303.305C303.562 209.175 305.844 203.324 310.152 199.338C314.524 195.352 320.053 193.359 326.739 193.359C334.069 193.359 339.694 195.32 343.616 199.242C347.538 203.099 349.499 208.21 349.499 214.575C349.499 219.59 348.149 224.38 345.448 228.945C342.748 233.509 339.662 237.496 336.19 240.903C332.718 244.246 328.186 248.297 322.592 253.054H351.042V264.241H303.401V254.212L308.416 249.968Z" fill="url(#paint1_linear_4_842)"/>
<path d="M273.537 246.507L272.141 242.542H266.682L265.285 246.507H262.815L268.127 232.171H270.725L276.028 246.507H273.537ZM271.535 240.53L270.178 236.624C270.126 236.455 270.051 236.217 269.953 235.911C269.856 235.599 269.758 235.283 269.66 234.964C269.563 234.638 269.481 234.365 269.416 234.144C269.351 234.41 269.27 234.71 269.172 235.042C269.081 235.368 268.99 235.674 268.899 235.96C268.814 236.246 268.749 236.468 268.703 236.624L267.336 240.53H271.535ZM279.973 235.696V246.507H277.678V235.696H279.973ZM278.84 231.556C279.192 231.556 279.494 231.65 279.748 231.839C280.009 232.028 280.139 232.353 280.139 232.815C280.139 233.271 280.009 233.597 279.748 233.792C279.494 233.981 279.192 234.075 278.84 234.075C278.475 234.075 278.166 233.981 277.912 233.792C277.665 233.597 277.541 233.271 277.541 232.815C277.541 232.353 277.665 232.028 277.912 231.839C278.166 231.65 278.475 231.556 278.84 231.556ZM295.481 235.491C296.692 235.491 297.603 235.804 298.215 236.429C298.834 237.054 299.143 238.056 299.143 239.437V246.507H296.848V239.847C296.848 239.026 296.688 238.408 296.369 237.991C296.05 237.575 295.565 237.366 294.914 237.366C294.003 237.366 293.345 237.659 292.942 238.245C292.544 238.825 292.346 239.668 292.346 240.774V246.507H290.051V239.847C290.051 239.3 289.979 238.844 289.836 238.479C289.699 238.108 289.488 237.832 289.201 237.649C288.915 237.461 288.554 237.366 288.117 237.366C287.486 237.366 286.981 237.509 286.604 237.796C286.233 238.082 285.966 238.506 285.803 239.065C285.64 239.619 285.559 240.299 285.559 241.106V246.507H283.264V235.696H285.051L285.373 237.151H285.5C285.722 236.774 285.995 236.465 286.32 236.224C286.653 235.976 287.02 235.794 287.424 235.677C287.828 235.553 288.248 235.491 288.684 235.491C289.491 235.491 290.171 235.634 290.725 235.921C291.278 236.201 291.692 236.631 291.965 237.21H292.141C292.479 236.624 292.951 236.191 293.557 235.911C294.162 235.631 294.804 235.491 295.481 235.491ZM311.779 235.491C313.147 235.491 314.179 235.794 314.875 236.399C315.578 237.005 315.93 237.949 315.93 239.231V246.507H314.299L313.86 244.974H313.781C313.475 245.364 313.16 245.687 312.834 245.94C312.509 246.194 312.131 246.383 311.701 246.507C311.278 246.637 310.761 246.702 310.149 246.702C309.504 246.702 308.928 246.585 308.42 246.351C307.912 246.11 307.512 245.745 307.219 245.257C306.926 244.769 306.779 244.15 306.779 243.401C306.779 242.288 307.193 241.451 308.02 240.892C308.853 240.332 310.11 240.022 311.789 239.964L313.664 239.896V239.329C313.664 238.58 313.488 238.047 313.137 237.728C312.792 237.409 312.304 237.249 311.672 237.249C311.132 237.249 310.608 237.327 310.1 237.483C309.592 237.64 309.097 237.832 308.615 238.06L307.873 236.438C308.401 236.159 309 235.931 309.67 235.755C310.347 235.579 311.05 235.491 311.779 235.491ZM313.654 241.341L312.258 241.39C311.112 241.429 310.308 241.624 309.846 241.976C309.384 242.327 309.153 242.809 309.153 243.421C309.153 243.955 309.312 244.345 309.631 244.593C309.95 244.834 310.37 244.954 310.891 244.954C311.685 244.954 312.343 244.729 312.863 244.28C313.391 243.825 313.654 243.157 313.654 242.278V241.341ZM323.166 244.847C323.466 244.847 323.762 244.821 324.055 244.769C324.348 244.71 324.615 244.642 324.856 244.563V246.302C324.602 246.412 324.273 246.507 323.869 246.585C323.466 246.663 323.046 246.702 322.61 246.702C321.998 246.702 321.447 246.601 320.959 246.399C320.471 246.191 320.084 245.836 319.797 245.335C319.511 244.834 319.367 244.14 319.367 243.255V237.444H317.893V236.419L319.475 235.608L320.227 233.294H321.672V235.696H324.768V237.444H321.672V243.226C321.672 243.772 321.809 244.179 322.082 244.446C322.356 244.713 322.717 244.847 323.166 244.847ZM336.272 244.847C336.571 244.847 336.867 244.821 337.16 244.769C337.453 244.71 337.72 244.642 337.961 244.563V246.302C337.707 246.412 337.378 246.507 336.975 246.585C336.571 246.663 336.151 246.702 335.715 246.702C335.103 246.702 334.553 246.601 334.065 246.399C333.576 246.191 333.189 245.836 332.903 245.335C332.616 244.834 332.473 244.14 332.473 243.255V237.444H330.998V236.419L332.58 235.608L333.332 233.294H334.778V235.696H337.873V237.444H334.778V243.226C334.778 243.772 334.914 244.179 335.188 244.446C335.461 244.713 335.822 244.847 336.272 244.847ZM342.453 231.312V235.13C342.453 235.527 342.44 235.914 342.414 236.292C342.395 236.67 342.372 236.963 342.346 237.171H342.473C342.701 236.793 342.981 236.484 343.313 236.243C343.645 235.996 344.016 235.81 344.426 235.687C344.843 235.563 345.285 235.501 345.754 235.501C346.581 235.501 347.284 235.641 347.863 235.921C348.443 236.194 348.886 236.621 349.192 237.2C349.504 237.78 349.66 238.532 349.66 239.456V246.507H347.365V239.886C347.365 239.046 347.193 238.418 346.848 238.001C346.503 237.578 345.969 237.366 345.246 237.366C344.55 237.366 343.996 237.513 343.586 237.806C343.182 238.092 342.893 238.519 342.717 239.085C342.541 239.645 342.453 240.328 342.453 241.136V246.507H340.158V231.312H342.453ZM357.18 235.491C358.143 235.491 358.97 235.69 359.66 236.087C360.35 236.484 360.881 237.047 361.252 237.776C361.623 238.506 361.809 239.378 361.809 240.394V241.624H354.592C354.618 242.672 354.898 243.479 355.432 244.046C355.972 244.612 356.727 244.896 357.697 244.896C358.388 244.896 359.006 244.83 359.553 244.7C360.106 244.563 360.676 244.365 361.262 244.104V245.97C360.722 246.224 360.171 246.409 359.611 246.526C359.052 246.644 358.381 246.702 357.6 246.702C356.539 246.702 355.604 246.497 354.797 246.087C353.996 245.67 353.368 245.052 352.912 244.231C352.463 243.411 352.238 242.392 352.238 241.175C352.238 239.964 352.444 238.935 352.854 238.089C353.264 237.243 353.84 236.598 354.582 236.155C355.324 235.713 356.19 235.491 357.18 235.491ZM357.18 237.22C356.457 237.22 355.871 237.454 355.422 237.923C354.979 238.392 354.719 239.078 354.641 239.983H359.563C359.556 239.443 359.465 238.965 359.289 238.548C359.12 238.131 358.86 237.806 358.508 237.571C358.163 237.337 357.72 237.22 357.18 237.22ZM382.502 239.349C382.502 240.462 382.359 241.478 382.072 242.396C381.786 243.313 381.356 244.098 380.783 244.749C380.21 245.4 379.488 245.892 378.615 246.224L382.014 249.905H378.889L376.203 246.692C376.138 246.692 376.073 246.692 376.008 246.692C375.949 246.699 375.891 246.702 375.832 246.702C374.693 246.702 373.703 246.526 372.863 246.175C372.03 245.823 371.337 245.322 370.783 244.671C370.236 244.02 369.826 243.242 369.553 242.337C369.279 241.432 369.143 240.429 369.143 239.329C369.143 237.858 369.384 236.575 369.865 235.481C370.354 234.381 371.093 233.528 372.082 232.923C373.078 232.311 374.335 232.005 375.852 232.005C377.336 232.005 378.57 232.308 379.553 232.913C380.536 233.519 381.272 234.371 381.76 235.472C382.255 236.565 382.502 237.858 382.502 239.349ZM371.604 239.349C371.604 240.449 371.753 241.403 372.053 242.21C372.352 243.011 372.811 243.629 373.43 244.065C374.055 244.495 374.856 244.71 375.832 244.71C376.815 244.71 377.616 244.495 378.235 244.065C378.853 243.629 379.309 243.011 379.602 242.21C379.895 241.403 380.041 240.449 380.041 239.349C380.041 237.675 379.706 236.367 379.035 235.423C378.371 234.472 377.31 233.997 375.852 233.997C374.875 233.997 374.071 234.212 373.44 234.642C372.815 235.071 372.352 235.687 372.053 236.487C371.753 237.282 371.604 238.235 371.604 239.349ZM389.582 232.229C390.813 232.229 391.828 232.379 392.629 232.679C393.436 232.978 394.035 233.434 394.426 234.046C394.823 234.658 395.022 235.436 395.022 236.38C395.022 237.083 394.891 237.682 394.631 238.177C394.371 238.672 394.029 239.082 393.606 239.407C393.182 239.733 392.73 239.993 392.248 240.188L396.301 246.507H393.654L390.207 240.784H387.912V246.507H385.569V232.229H389.582ZM389.426 234.183H387.912V238.851H389.533C390.621 238.851 391.408 238.649 391.897 238.245C392.391 237.841 392.639 237.246 392.639 236.458C392.639 235.631 392.375 235.045 391.848 234.7C391.327 234.355 390.52 234.183 389.426 234.183ZM313.166 261.017C312.483 261.017 311.871 261.14 311.33 261.388C310.796 261.635 310.344 261.993 309.973 262.462C309.602 262.924 309.319 263.487 309.123 264.151C308.928 264.809 308.83 265.551 308.83 266.378C308.83 267.485 308.986 268.438 309.299 269.239C309.611 270.034 310.087 270.646 310.725 271.075C311.363 271.498 312.17 271.71 313.147 271.71C313.752 271.71 314.341 271.651 314.914 271.534C315.487 271.417 316.08 271.257 316.692 271.056V273.048C316.112 273.276 315.526 273.442 314.934 273.546C314.341 273.65 313.658 273.702 312.883 273.702C311.425 273.702 310.214 273.399 309.25 272.794C308.293 272.188 307.577 271.336 307.102 270.235C306.633 269.135 306.399 267.846 306.399 266.368C306.399 265.287 306.548 264.298 306.848 263.399C307.147 262.501 307.584 261.726 308.156 261.075C308.729 260.418 309.436 259.913 310.276 259.562C311.122 259.203 312.089 259.024 313.176 259.024C313.892 259.024 314.595 259.106 315.285 259.269C315.982 259.425 316.626 259.649 317.219 259.942L316.399 261.876C315.904 261.642 315.386 261.44 314.846 261.271C314.306 261.101 313.746 261.017 313.166 261.017ZM329.094 268.077C329.094 268.976 328.977 269.773 328.742 270.47C328.508 271.166 328.166 271.756 327.717 272.237C327.268 272.713 326.727 273.077 326.096 273.331C325.464 273.578 324.751 273.702 323.957 273.702C323.215 273.702 322.535 273.578 321.916 273.331C321.298 273.077 320.761 272.713 320.305 272.237C319.856 271.756 319.507 271.166 319.26 270.47C319.013 269.773 318.889 268.976 318.889 268.077C318.889 266.886 319.094 265.877 319.504 265.05C319.921 264.216 320.513 263.582 321.281 263.146C322.05 262.709 322.964 262.491 324.026 262.491C325.022 262.491 325.901 262.709 326.662 263.146C327.424 263.582 328.02 264.216 328.449 265.05C328.879 265.883 329.094 266.892 329.094 268.077ZM321.252 268.077C321.252 268.865 321.347 269.539 321.535 270.099C321.731 270.659 322.03 271.088 322.434 271.388C322.837 271.681 323.358 271.827 323.996 271.827C324.634 271.827 325.155 271.681 325.559 271.388C325.962 271.088 326.259 270.659 326.447 270.099C326.636 269.539 326.731 268.865 326.731 268.077C326.731 267.289 326.636 266.622 326.447 266.075C326.259 265.522 325.962 265.102 325.559 264.815C325.155 264.522 324.631 264.376 323.986 264.376C323.036 264.376 322.343 264.695 321.906 265.333C321.47 265.971 321.252 266.886 321.252 268.077ZM335.363 273.702C334.074 273.702 333.039 273.233 332.258 272.296C331.483 271.352 331.096 269.962 331.096 268.126C331.096 266.271 331.49 264.868 332.278 263.917C333.072 262.966 334.117 262.491 335.412 262.491C335.959 262.491 336.438 262.566 336.848 262.716C337.258 262.859 337.61 263.054 337.903 263.302C338.202 263.549 338.456 263.826 338.664 264.132H338.772C338.739 263.93 338.7 263.64 338.654 263.263C338.615 262.879 338.596 262.524 338.596 262.198V258.312H340.901V273.507H339.104L338.694 272.032H338.596C338.401 272.345 338.153 272.628 337.854 272.882C337.561 273.129 337.209 273.328 336.799 273.478C336.395 273.627 335.917 273.702 335.363 273.702ZM336.008 271.837C336.991 271.837 337.684 271.554 338.088 270.987C338.492 270.421 338.7 269.571 338.713 268.438V268.136C338.713 266.925 338.518 265.997 338.127 265.353C337.736 264.701 337.024 264.376 335.988 264.376C335.162 264.376 334.53 264.711 334.094 265.382C333.664 266.046 333.449 266.974 333.449 268.165C333.449 269.356 333.664 270.268 334.094 270.899C334.53 271.524 335.168 271.837 336.008 271.837ZM348.498 262.491C349.462 262.491 350.289 262.69 350.979 263.087C351.669 263.484 352.199 264.047 352.57 264.776C352.942 265.506 353.127 266.378 353.127 267.394V268.624H345.91C345.936 269.672 346.216 270.479 346.75 271.046C347.291 271.612 348.046 271.896 349.016 271.896C349.706 271.896 350.324 271.83 350.871 271.7C351.425 271.563 351.994 271.365 352.58 271.104V272.97C352.04 273.224 351.49 273.409 350.93 273.526C350.37 273.644 349.699 273.702 348.918 273.702C347.857 273.702 346.923 273.497 346.115 273.087C345.315 272.67 344.686 272.052 344.231 271.231C343.781 270.411 343.557 269.392 343.557 268.175C343.557 266.964 343.762 265.935 344.172 265.089C344.582 264.243 345.158 263.598 345.901 263.155C346.643 262.713 347.509 262.491 348.498 262.491ZM348.498 264.22C347.776 264.22 347.19 264.454 346.74 264.923C346.298 265.392 346.037 266.078 345.959 266.983H350.881C350.875 266.443 350.783 265.965 350.608 265.548C350.438 265.131 350.178 264.806 349.826 264.571C349.481 264.337 349.039 264.22 348.498 264.22Z" fill="#6C6C6C"/>
<rect x="270.326" y="2.01598" width="109.9" height="175.749" rx="25.7922" stroke="#E3B6D0" stroke-width="3.96804"/>
<rect x="270.597" y="30.0934" width="109.046" height="116.58" fill="white" stroke="#E3B6D0" stroke-width="3.96804"/>
<rect x="292.901" y="57.4664" width="64.7443" height="64.7443" fill="white" stroke="#ABABAB" stroke-width="3.96804"/>
<rect x="290.917" y="66.9873" width="68.7123" height="45.8082" fill="white"/>
<rect x="300.939" y="124.875" width="70.7737" height="45.8082" transform="rotate(-90 300.939 124.875)" fill="white"/>
<g clip-path="url(#clip0_4_842)">
<path d="M305.494 70.1101V84.6854H320.067V70.1101H305.494ZM323.189 91.9731V112.795H302.371V91.9731H323.189ZM320.067 95.0964H305.494V109.672H320.067V95.0964ZM316.099 99.3873V105.634H309.854V99.3873H316.099ZM323.189 66.9868V87.8087H302.371V66.9868H323.189ZM316.099 74.401H309.854V80.6476H316.099V74.401ZM348.162 105.767V112.792H337.605V109.669H345.04V105.767H348.162ZM334.076 109.665V112.788H327.35V109.665H334.076ZM330.47 91.9591V105.699H327.348V91.9591H330.47ZM337.96 99.386V102.506H341.088V105.629H334.838V99.386H337.96ZM348.179 98.7109V102.213H345.057V98.7109H348.179ZM348.156 92.0539V95.1772H337.611V92.0539H348.156ZM348.171 66.9868V87.8087H327.353V66.9868H348.171ZM345.048 70.1101H330.476V84.6854H345.048V70.1101ZM341.081 74.401V80.6476H334.836V74.401H341.081Z" fill="#707070"/>
</g>
<path opacity="0.6" d="M520.062 213.418C520.384 206.989 522.634 202.038 526.813 198.567C531.056 195.031 536.618 193.263 543.497 193.263C548.19 193.263 552.209 194.098 555.552 195.77C558.895 197.377 561.402 199.595 563.074 202.424C564.81 205.189 565.678 208.339 565.678 211.875C565.678 215.926 564.617 219.365 562.495 222.194C560.438 224.959 557.963 226.823 555.07 227.787V228.173C558.799 229.33 561.692 231.388 563.749 234.345C565.871 237.303 566.931 241.096 566.931 245.725C566.931 249.583 566.031 253.022 564.231 256.044C562.495 259.066 559.891 261.444 556.42 263.18C553.012 264.852 548.897 265.688 544.076 265.688C536.811 265.688 530.896 263.855 526.331 260.191C521.766 256.526 519.355 251.126 519.098 243.989H532.214C532.342 247.139 533.403 249.679 535.396 251.608C537.453 253.472 540.25 254.404 543.786 254.404C547.065 254.404 549.573 253.504 551.308 251.704C553.109 249.84 554.009 247.461 554.009 244.568C554.009 240.71 552.787 237.946 550.344 236.274C547.901 234.602 544.108 233.767 538.964 233.767H536.168V222.676H538.964C548.094 222.676 552.659 219.622 552.659 213.515C552.659 210.75 551.823 208.596 550.151 207.053C548.544 205.51 546.197 204.739 543.111 204.739C540.089 204.739 537.743 205.575 536.071 207.246C534.464 208.853 533.532 210.911 533.274 213.418H520.062Z" fill="url(#paint2_linear_4_842)"/>
<path d="M468.754 242.62C468.754 243.466 468.545 244.196 468.129 244.808C467.718 245.42 467.126 245.888 466.351 246.214C465.583 246.539 464.665 246.702 463.597 246.702C463.077 246.702 462.578 246.673 462.103 246.614C461.628 246.556 461.179 246.471 460.756 246.36C460.339 246.243 459.958 246.103 459.613 245.94V243.733C460.192 243.987 460.84 244.218 461.556 244.427C462.272 244.629 463.002 244.729 463.744 244.729C464.349 244.729 464.851 244.651 465.248 244.495C465.651 244.332 465.951 244.104 466.146 243.812C466.342 243.512 466.439 243.164 466.439 242.767C466.439 242.343 466.325 241.985 466.097 241.692C465.87 241.399 465.524 241.132 465.062 240.892C464.606 240.644 464.034 240.381 463.343 240.101C462.875 239.912 462.425 239.697 461.996 239.456C461.573 239.215 461.195 238.932 460.863 238.606C460.531 238.281 460.267 237.897 460.072 237.454C459.883 237.005 459.789 236.478 459.789 235.872C459.789 235.065 459.981 234.375 460.365 233.802C460.756 233.229 461.302 232.789 462.006 232.483C462.715 232.177 463.542 232.024 464.486 232.024C465.235 232.024 465.938 232.103 466.595 232.259C467.259 232.415 467.911 232.636 468.549 232.923L467.806 234.808C467.22 234.567 466.651 234.375 466.097 234.231C465.55 234.088 464.991 234.017 464.418 234.017C463.923 234.017 463.503 234.091 463.158 234.241C462.813 234.391 462.549 234.603 462.367 234.876C462.191 235.143 462.103 235.462 462.103 235.833C462.103 236.25 462.204 236.601 462.406 236.888C462.614 237.168 462.933 237.425 463.363 237.659C463.799 237.894 464.359 238.154 465.043 238.44C465.83 238.766 466.498 239.108 467.045 239.466C467.598 239.824 468.021 240.254 468.314 240.755C468.607 241.25 468.754 241.871 468.754 242.62ZM475.58 235.491C476.543 235.491 477.37 235.69 478.06 236.087C478.75 236.484 479.281 237.047 479.652 237.776C480.023 238.506 480.209 239.378 480.209 240.394V241.624H472.992C473.018 242.672 473.298 243.479 473.832 244.046C474.372 244.612 475.127 244.896 476.097 244.896C476.787 244.896 477.406 244.83 477.953 244.7C478.506 244.563 479.076 244.365 479.662 244.104V245.97C479.121 246.224 478.571 246.409 478.011 246.526C477.452 246.644 476.781 246.702 476 246.702C474.939 246.702 474.004 246.497 473.197 246.087C472.396 245.67 471.768 245.052 471.312 244.231C470.863 243.411 470.638 242.392 470.638 241.175C470.638 239.964 470.843 238.935 471.254 238.089C471.664 237.243 472.24 236.598 472.982 236.155C473.724 235.713 474.59 235.491 475.58 235.491ZM475.58 237.22C474.857 237.22 474.271 237.454 473.822 237.923C473.379 238.392 473.119 239.078 473.041 239.983H477.963C477.956 239.443 477.865 238.965 477.689 238.548C477.52 238.131 477.259 237.806 476.908 237.571C476.563 237.337 476.12 237.22 475.58 237.22ZM485.101 246.507H482.797V231.312H485.101V246.507ZM492.689 235.491C493.653 235.491 494.48 235.69 495.17 236.087C495.86 236.484 496.39 237.047 496.761 237.776C497.133 238.506 497.318 239.378 497.318 240.394V241.624H490.101C490.127 242.672 490.407 243.479 490.941 244.046C491.481 244.612 492.237 244.896 493.207 244.896C493.897 244.896 494.515 244.83 495.062 244.7C495.616 244.563 496.185 244.365 496.771 244.104V245.97C496.231 246.224 495.681 246.409 495.121 246.526C494.561 246.644 493.89 246.702 493.109 246.702C492.048 246.702 491.114 246.497 490.306 246.087C489.506 245.67 488.877 245.052 488.422 244.231C487.972 243.411 487.748 242.392 487.748 241.175C487.748 239.964 487.953 238.935 488.363 238.089C488.773 237.243 489.349 236.598 490.092 236.155C490.834 235.713 491.7 235.491 492.689 235.491ZM492.689 237.22C491.967 237.22 491.381 237.454 490.931 237.923C490.489 238.392 490.228 239.078 490.15 239.983H495.072C495.065 239.443 494.974 238.965 494.799 238.548C494.629 238.131 494.369 237.806 494.017 237.571C493.672 237.337 493.23 237.22 492.689 237.22ZM504.261 246.702C503.239 246.702 502.354 246.504 501.605 246.106C500.856 245.709 500.28 245.101 499.877 244.28C499.473 243.46 499.271 242.418 499.271 241.155C499.271 239.84 499.493 238.766 499.935 237.933C500.378 237.099 500.99 236.484 501.771 236.087C502.559 235.69 503.461 235.491 504.476 235.491C505.121 235.491 505.703 235.556 506.224 235.687C506.752 235.81 507.198 235.963 507.562 236.146L506.879 237.981C506.481 237.819 506.075 237.682 505.658 237.571C505.241 237.461 504.841 237.405 504.457 237.405C503.825 237.405 503.298 237.545 502.875 237.825C502.458 238.105 502.146 238.522 501.937 239.075C501.735 239.629 501.634 240.315 501.634 241.136C501.634 241.93 501.739 242.601 501.947 243.147C502.155 243.688 502.465 244.098 502.875 244.378C503.285 244.651 503.789 244.788 504.388 244.788C504.981 244.788 505.511 244.716 505.98 244.573C506.449 244.43 506.892 244.244 507.308 244.017V246.009C506.898 246.243 506.459 246.416 505.99 246.526C505.521 246.644 504.945 246.702 504.261 246.702ZM513.871 244.847C514.17 244.847 514.467 244.821 514.759 244.769C515.052 244.71 515.319 244.642 515.56 244.563V246.302C515.306 246.412 514.978 246.507 514.574 246.585C514.17 246.663 513.75 246.702 513.314 246.702C512.702 246.702 512.152 246.601 511.664 246.399C511.175 246.191 510.788 245.836 510.502 245.335C510.215 244.834 510.072 244.14 510.072 243.255V237.444H508.597V236.419L510.179 235.608L510.931 233.294H512.377V235.696H515.472V237.444H512.377V243.226C512.377 243.772 512.513 244.179 512.787 244.446C513.06 244.713 513.422 244.847 513.871 244.847ZM528.5 235.491C529.782 235.491 530.811 235.96 531.586 236.897C532.367 237.835 532.758 239.228 532.758 241.077C532.758 242.301 532.575 243.333 532.211 244.173C531.853 245.006 531.348 245.638 530.697 246.067C530.052 246.491 529.3 246.702 528.441 246.702C527.894 246.702 527.419 246.631 527.015 246.487C526.612 246.344 526.267 246.159 525.98 245.931C525.694 245.696 525.453 245.442 525.258 245.169H525.121C525.153 245.429 525.183 245.719 525.209 246.038C525.241 246.351 525.258 246.637 525.258 246.897V251.302H522.953V235.696H524.828L525.15 237.19H525.258C525.459 236.884 525.703 236.601 525.99 236.341C526.283 236.08 526.634 235.875 527.045 235.726C527.461 235.569 527.946 235.491 528.5 235.491ZM527.884 237.366C527.253 237.366 526.745 237.493 526.361 237.747C525.983 237.994 525.707 238.369 525.531 238.87C525.362 239.371 525.271 240 525.258 240.755V241.077C525.258 241.878 525.339 242.558 525.502 243.118C525.671 243.672 525.948 244.095 526.332 244.388C526.722 244.674 527.25 244.817 527.914 244.817C528.474 244.817 528.936 244.664 529.3 244.358C529.672 244.052 529.948 243.616 530.131 243.05C530.313 242.483 530.404 241.816 530.404 241.048C530.404 239.882 530.196 238.978 529.779 238.333C529.369 237.688 528.737 237.366 527.884 237.366ZM537.709 231.312V235.13C537.709 235.527 537.696 235.914 537.67 236.292C537.65 236.67 537.627 236.963 537.601 237.171H537.728C537.956 236.793 538.236 236.484 538.568 236.243C538.9 235.996 539.271 235.81 539.681 235.687C540.098 235.563 540.541 235.501 541.009 235.501C541.836 235.501 542.539 235.641 543.119 235.921C543.698 236.194 544.141 236.621 544.447 237.2C544.759 237.78 544.916 238.532 544.916 239.456V246.507H542.621V239.886C542.621 239.046 542.448 238.418 542.103 238.001C541.758 237.578 541.224 237.366 540.502 237.366C539.805 237.366 539.252 237.513 538.842 237.806C538.438 238.092 538.148 238.519 537.972 239.085C537.797 239.645 537.709 240.328 537.709 241.136V246.507H535.414V231.312H537.709ZM557.699 241.077C557.699 241.976 557.582 242.773 557.347 243.47C557.113 244.166 556.771 244.756 556.322 245.237C555.873 245.713 555.332 246.077 554.701 246.331C554.069 246.578 553.356 246.702 552.562 246.702C551.82 246.702 551.14 246.578 550.521 246.331C549.903 246.077 549.366 245.713 548.91 245.237C548.461 244.756 548.112 244.166 547.865 243.47C547.618 242.773 547.494 241.976 547.494 241.077C547.494 239.886 547.699 238.877 548.109 238.05C548.526 237.216 549.118 236.582 549.886 236.146C550.655 235.709 551.569 235.491 552.631 235.491C553.627 235.491 554.506 235.709 555.267 236.146C556.029 236.582 556.625 237.216 557.054 238.05C557.484 238.883 557.699 239.892 557.699 241.077ZM549.857 241.077C549.857 241.865 549.952 242.539 550.14 243.099C550.336 243.659 550.635 244.088 551.039 244.388C551.442 244.681 551.963 244.827 552.601 244.827C553.239 244.827 553.76 244.681 554.164 244.388C554.567 244.088 554.864 243.659 555.052 243.099C555.241 242.539 555.336 241.865 555.336 241.077C555.336 240.289 555.241 239.622 555.052 239.075C554.864 238.522 554.567 238.102 554.164 237.815C553.76 237.522 553.236 237.376 552.592 237.376C551.641 237.376 550.948 237.695 550.511 238.333C550.075 238.971 549.857 239.886 549.857 241.077ZM564.359 244.847C564.659 244.847 564.955 244.821 565.248 244.769C565.541 244.71 565.808 244.642 566.049 244.563V246.302C565.795 246.412 565.466 246.507 565.062 246.585C564.659 246.663 564.239 246.702 563.802 246.702C563.19 246.702 562.64 246.601 562.152 246.399C561.664 246.191 561.276 245.836 560.99 245.335C560.703 244.834 560.56 244.14 560.56 243.255V237.444H559.086V236.419L560.668 235.608L561.42 233.294H562.865V235.696H565.961V237.444H562.865V243.226C562.865 243.772 563.002 244.179 563.275 244.446C563.549 244.713 563.91 244.847 564.359 244.847ZM577.816 241.077C577.816 241.976 577.699 242.773 577.465 243.47C577.23 244.166 576.888 244.756 576.439 245.237C575.99 245.713 575.45 246.077 574.818 246.331C574.187 246.578 573.474 246.702 572.679 246.702C571.937 246.702 571.257 246.578 570.638 246.331C570.02 246.077 569.483 245.713 569.027 245.237C568.578 244.756 568.23 244.166 567.982 243.47C567.735 242.773 567.611 241.976 567.611 241.077C567.611 239.886 567.816 238.877 568.226 238.05C568.643 237.216 569.235 236.582 570.004 236.146C570.772 235.709 571.687 235.491 572.748 235.491C573.744 235.491 574.623 235.709 575.384 236.146C576.146 236.582 576.742 237.216 577.172 238.05C577.601 238.883 577.816 239.892 577.816 241.077ZM569.974 241.077C569.974 241.865 570.069 242.539 570.258 243.099C570.453 243.659 570.752 244.088 571.156 244.388C571.56 244.681 572.08 244.827 572.718 244.827C573.356 244.827 573.877 244.681 574.281 244.388C574.685 244.088 574.981 243.659 575.17 243.099C575.358 242.539 575.453 241.865 575.453 241.077C575.453 240.289 575.358 239.622 575.17 239.075C574.981 238.522 574.685 238.102 574.281 237.815C573.877 237.522 573.353 237.376 572.709 237.376C571.758 237.376 571.065 237.695 570.629 238.333C570.192 238.971 569.974 239.886 569.974 241.077ZM587.718 243.421C587.718 244.131 587.546 244.729 587.201 245.218C586.856 245.706 586.351 246.077 585.687 246.331C585.03 246.578 584.222 246.702 583.265 246.702C582.51 246.702 581.859 246.647 581.312 246.536C580.772 246.432 580.261 246.269 579.779 246.048V244.065C580.293 244.306 580.87 244.515 581.508 244.69C582.152 244.866 582.761 244.954 583.334 244.954C584.089 244.954 584.633 244.837 584.965 244.603C585.297 244.362 585.463 244.043 585.463 243.646C585.463 243.411 585.394 243.203 585.258 243.021C585.127 242.832 584.88 242.64 584.515 242.444C584.157 242.243 583.63 242.002 582.933 241.722C582.25 241.448 581.674 241.175 581.205 240.901C580.736 240.628 580.381 240.299 580.14 239.915C579.899 239.524 579.779 239.026 579.779 238.421C579.779 237.464 580.157 236.738 580.912 236.243C581.674 235.742 582.679 235.491 583.929 235.491C584.593 235.491 585.218 235.56 585.804 235.696C586.397 235.826 586.976 236.019 587.543 236.272L586.82 238.001C586.332 237.786 585.84 237.61 585.345 237.474C584.857 237.33 584.359 237.259 583.851 237.259C583.259 237.259 582.806 237.35 582.494 237.532C582.188 237.715 582.035 237.975 582.035 238.313C582.035 238.567 582.11 238.782 582.259 238.958C582.409 239.134 582.666 239.31 583.031 239.485C583.402 239.661 583.916 239.879 584.574 240.14C585.218 240.387 585.775 240.647 586.244 240.921C586.719 241.188 587.084 241.517 587.338 241.907C587.592 242.298 587.718 242.802 587.718 243.421ZM593.763 235.696H596.263L598.48 241.868C598.578 242.148 598.666 242.425 598.744 242.698C598.828 242.965 598.9 243.229 598.959 243.489C599.024 243.75 599.076 244.01 599.115 244.271H599.174C599.239 243.932 599.33 243.554 599.447 243.138C599.571 242.715 599.707 242.291 599.857 241.868L601.986 235.696H604.457L599.818 247.991C599.551 248.694 599.222 249.293 598.832 249.788C598.448 250.289 597.992 250.667 597.465 250.921C596.937 251.181 596.335 251.312 595.658 251.312C595.332 251.312 595.049 251.292 594.808 251.253C594.567 251.22 594.362 251.185 594.193 251.146V249.31C594.33 249.342 594.502 249.371 594.711 249.397C594.919 249.424 595.134 249.437 595.355 249.437C595.765 249.437 596.12 249.355 596.42 249.192C596.719 249.03 596.973 248.799 597.181 248.499C597.39 248.206 597.562 247.871 597.699 247.493L598.08 246.478L593.763 235.696ZM615.668 241.077C615.668 241.976 615.55 242.773 615.316 243.47C615.082 244.166 614.74 244.756 614.291 245.237C613.842 245.713 613.301 246.077 612.67 246.331C612.038 246.578 611.325 246.702 610.531 246.702C609.789 246.702 609.108 246.578 608.49 246.331C607.871 246.077 607.334 245.713 606.879 245.237C606.429 244.756 606.081 244.166 605.834 243.47C605.586 242.773 605.463 241.976 605.463 241.077C605.463 239.886 605.668 238.877 606.078 238.05C606.495 237.216 607.087 236.582 607.855 236.146C608.623 235.709 609.538 235.491 610.599 235.491C611.595 235.491 612.474 235.709 613.236 236.146C613.998 236.582 614.593 237.216 615.023 238.05C615.453 238.883 615.668 239.892 615.668 241.077ZM607.826 241.077C607.826 241.865 607.92 242.539 608.109 243.099C608.304 243.659 608.604 244.088 609.008 244.388C609.411 244.681 609.932 244.827 610.57 244.827C611.208 244.827 611.729 244.681 612.133 244.388C612.536 244.088 612.832 243.659 613.021 243.099C613.21 242.539 613.304 241.865 613.304 241.077C613.304 240.289 613.21 239.622 613.021 239.075C612.832 238.522 612.536 238.102 612.133 237.815C611.729 237.522 611.205 237.376 610.56 237.376C609.61 237.376 608.916 237.695 608.48 238.333C608.044 238.971 607.826 239.886 607.826 241.077ZM627.728 235.696V246.507H625.922L625.609 245.052H625.482C625.254 245.423 624.965 245.732 624.613 245.979C624.261 246.22 623.871 246.399 623.441 246.517C623.011 246.64 622.559 246.702 622.084 246.702C621.27 246.702 620.573 246.565 619.994 246.292C619.421 246.012 618.981 245.582 618.675 245.003C618.37 244.424 618.217 243.675 618.217 242.757V235.696H620.521V242.327C620.521 243.167 620.69 243.795 621.029 244.212C621.374 244.629 621.908 244.837 622.631 244.837C623.327 244.837 623.881 244.694 624.291 244.407C624.701 244.121 624.991 243.698 625.16 243.138C625.336 242.578 625.424 241.891 625.424 241.077V235.696H627.728ZM481.449 273.497L480.082 268.468C480.017 268.22 479.939 267.921 479.847 267.569C479.756 267.218 479.665 266.856 479.574 266.485C479.483 266.108 479.398 265.759 479.32 265.44C479.248 265.121 479.193 264.874 479.154 264.698H479.076C479.043 264.874 478.991 265.121 478.92 265.44C478.848 265.759 478.767 266.108 478.675 266.485C478.584 266.863 478.493 267.231 478.402 267.589C478.317 267.947 478.239 268.253 478.168 268.507L476.732 273.497H474.213L471.185 262.687H473.509L474.916 268.058C475.007 268.422 475.095 268.816 475.179 269.239C475.271 269.662 475.349 270.066 475.414 270.45C475.479 270.834 475.528 271.15 475.56 271.397H475.638C475.664 271.222 475.7 271 475.746 270.733C475.791 270.46 475.843 270.177 475.902 269.884C475.961 269.584 476.019 269.304 476.078 269.044C476.136 268.777 476.192 268.562 476.244 268.399L477.904 262.687H480.414L482.006 268.399C482.077 268.647 482.155 268.959 482.24 269.337C482.325 269.708 482.399 270.082 482.465 270.46C482.536 270.831 482.582 271.14 482.601 271.388H482.679C482.705 271.166 482.751 270.867 482.816 270.489C482.888 270.105 482.969 269.698 483.06 269.269C483.151 268.832 483.246 268.429 483.343 268.058L484.779 262.687H487.064L484.017 273.497H481.449ZM493.158 262.491C494.525 262.491 495.557 262.794 496.254 263.399C496.957 264.005 497.308 264.949 497.308 266.231V273.507H495.677L495.238 271.974H495.16C494.854 272.364 494.538 272.687 494.213 272.94C493.887 273.194 493.509 273.383 493.08 273.507C492.657 273.637 492.139 273.702 491.527 273.702C490.883 273.702 490.306 273.585 489.799 273.351C489.291 273.11 488.89 272.745 488.597 272.257C488.304 271.769 488.158 271.15 488.158 270.401C488.158 269.288 488.571 268.451 489.398 267.892C490.231 267.332 491.488 267.022 493.168 266.964L495.043 266.896V266.329C495.043 265.58 494.867 265.047 494.515 264.728C494.17 264.409 493.682 264.249 493.05 264.249C492.51 264.249 491.986 264.327 491.478 264.483C490.97 264.64 490.476 264.832 489.994 265.06L489.252 263.438C489.779 263.159 490.378 262.931 491.049 262.755C491.726 262.579 492.429 262.491 493.158 262.491ZM495.033 268.341L493.636 268.39C492.491 268.429 491.687 268.624 491.224 268.976C490.762 269.327 490.531 269.809 490.531 270.421C490.531 270.955 490.69 271.345 491.009 271.593C491.328 271.834 491.748 271.954 492.269 271.954C493.064 271.954 493.721 271.729 494.242 271.28C494.769 270.825 495.033 270.157 495.033 269.278V268.341ZM506.156 262.491C507.373 262.491 508.321 262.807 508.998 263.438C509.681 264.063 510.023 265.069 510.023 266.456V273.507H507.728V266.886C507.728 266.046 507.556 265.418 507.211 265.001C506.866 264.578 506.332 264.366 505.609 264.366C504.561 264.366 503.832 264.688 503.422 265.333C503.018 265.978 502.816 266.912 502.816 268.136V273.507H500.521V262.696H502.308L502.631 264.161H502.758C502.992 263.784 503.282 263.474 503.627 263.233C503.978 262.986 504.369 262.8 504.799 262.677C505.235 262.553 505.687 262.491 506.156 262.491ZM517.259 271.847C517.559 271.847 517.855 271.821 518.148 271.769C518.441 271.71 518.708 271.642 518.949 271.563V273.302C518.695 273.412 518.366 273.507 517.963 273.585C517.559 273.663 517.139 273.702 516.703 273.702C516.091 273.702 515.541 273.601 515.052 273.399C514.564 273.191 514.177 272.836 513.89 272.335C513.604 271.834 513.461 271.14 513.461 270.255V264.444H511.986V263.419L513.568 262.608L514.32 260.294H515.765V262.696H518.861V264.444H515.765V270.226C515.765 270.772 515.902 271.179 516.175 271.446C516.449 271.713 516.81 271.847 517.259 271.847ZM530.365 271.847C530.664 271.847 530.961 271.821 531.254 271.769C531.547 271.71 531.814 271.642 532.054 271.563V273.302C531.8 273.412 531.472 273.507 531.068 273.585C530.664 273.663 530.245 273.702 529.808 273.702C529.196 273.702 528.646 273.601 528.158 273.399C527.67 273.191 527.282 272.836 526.996 272.335C526.709 271.834 526.566 271.14 526.566 270.255V264.444H525.092V263.419L526.674 262.608L527.425 260.294H528.871V262.696H531.967V264.444H528.871V270.226C528.871 270.772 529.008 271.179 529.281 271.446C529.554 271.713 529.916 271.847 530.365 271.847ZM543.822 268.077C543.822 268.976 543.705 269.773 543.47 270.47C543.236 271.166 542.894 271.756 542.445 272.237C541.996 272.713 541.455 273.077 540.824 273.331C540.192 273.578 539.48 273.702 538.685 273.702C537.943 273.702 537.263 273.578 536.644 273.331C536.026 273.077 535.489 272.713 535.033 272.237C534.584 271.756 534.235 271.166 533.988 270.47C533.741 269.773 533.617 268.976 533.617 268.077C533.617 266.886 533.822 265.877 534.232 265.05C534.649 264.216 535.241 263.582 536.009 263.146C536.778 262.709 537.692 262.491 538.754 262.491C539.75 262.491 540.629 262.709 541.39 263.146C542.152 263.582 542.748 264.216 543.177 265.05C543.607 265.883 543.822 266.892 543.822 268.077ZM535.98 268.077C535.98 268.865 536.075 269.539 536.263 270.099C536.459 270.659 536.758 271.088 537.162 271.388C537.565 271.681 538.086 271.827 538.724 271.827C539.362 271.827 539.883 271.681 540.287 271.388C540.69 271.088 540.987 270.659 541.175 270.099C541.364 269.539 541.459 268.865 541.459 268.077C541.459 267.289 541.364 266.622 541.175 266.075C540.987 265.522 540.69 265.102 540.287 264.815C539.883 264.522 539.359 264.376 538.715 264.376C537.764 264.376 537.071 264.695 536.634 265.333C536.198 265.971 535.98 266.886 535.98 268.077ZM561.078 262.696V273.507H559.271L558.959 272.052H558.832C558.604 272.423 558.314 272.732 557.963 272.979C557.611 273.22 557.22 273.399 556.791 273.517C556.361 273.64 555.909 273.702 555.433 273.702C554.62 273.702 553.923 273.565 553.343 273.292C552.771 273.012 552.331 272.582 552.025 272.003C551.719 271.424 551.566 270.675 551.566 269.757V262.696H553.871V269.327C553.871 270.167 554.04 270.795 554.379 271.212C554.724 271.629 555.258 271.837 555.98 271.837C556.677 271.837 557.23 271.694 557.64 271.407C558.05 271.121 558.34 270.698 558.509 270.138C558.685 269.578 558.773 268.891 558.773 268.077V262.696H561.078ZM569.916 262.491C571.198 262.491 572.227 262.96 573.002 263.897C573.783 264.835 574.174 266.228 574.174 268.077C574.174 269.301 573.991 270.333 573.627 271.173C573.269 272.006 572.764 272.638 572.113 273.067C571.468 273.491 570.717 273.702 569.857 273.702C569.31 273.702 568.835 273.631 568.431 273.487C568.028 273.344 567.683 273.159 567.396 272.931C567.11 272.696 566.869 272.442 566.674 272.169H566.537C566.569 272.429 566.599 272.719 566.625 273.038C566.657 273.351 566.674 273.637 566.674 273.897V278.302H564.369V262.696H566.244L566.566 264.19H566.674C566.875 263.884 567.12 263.601 567.406 263.341C567.699 263.08 568.05 262.875 568.461 262.726C568.877 262.569 569.362 262.491 569.916 262.491ZM569.3 264.366C568.669 264.366 568.161 264.493 567.777 264.747C567.399 264.994 567.123 265.369 566.947 265.87C566.778 266.371 566.687 267 566.674 267.755V268.077C566.674 268.878 566.755 269.558 566.918 270.118C567.087 270.672 567.364 271.095 567.748 271.388C568.138 271.674 568.666 271.817 569.33 271.817C569.89 271.817 570.352 271.664 570.717 271.358C571.088 271.052 571.364 270.616 571.547 270.05C571.729 269.483 571.82 268.816 571.82 268.048C571.82 266.882 571.612 265.978 571.195 265.333C570.785 264.688 570.153 264.366 569.3 264.366ZM579.134 273.507H576.83V258.312H579.134V273.507ZM591.986 268.077C591.986 268.976 591.869 269.773 591.634 270.47C591.4 271.166 591.058 271.756 590.609 272.237C590.16 272.713 589.62 273.077 588.988 273.331C588.356 273.578 587.644 273.702 586.849 273.702C586.107 273.702 585.427 273.578 584.808 273.331C584.19 273.077 583.653 272.713 583.197 272.237C582.748 271.756 582.399 271.166 582.152 270.47C581.905 269.773 581.781 268.976 581.781 268.077C581.781 266.886 581.986 265.877 582.396 265.05C582.813 264.216 583.405 263.582 584.174 263.146C584.942 262.709 585.856 262.491 586.918 262.491C587.914 262.491 588.793 262.709 589.554 263.146C590.316 263.582 590.912 264.216 591.342 265.05C591.771 265.883 591.986 266.892 591.986 268.077ZM584.144 268.077C584.144 268.865 584.239 269.539 584.427 270.099C584.623 270.659 584.922 271.088 585.326 271.388C585.73 271.681 586.25 271.827 586.888 271.827C587.526 271.827 588.047 271.681 588.451 271.388C588.855 271.088 589.151 270.659 589.34 270.099C589.528 269.539 589.623 268.865 589.623 268.077C589.623 267.289 589.528 266.622 589.34 266.075C589.151 265.522 588.855 265.102 588.451 264.815C588.047 264.522 587.523 264.376 586.879 264.376C585.928 264.376 585.235 264.695 584.799 265.333C584.362 265.971 584.144 266.886 584.144 268.077ZM598.861 262.491C600.228 262.491 601.26 262.794 601.957 263.399C602.66 264.005 603.011 264.949 603.011 266.231V273.507H601.381L600.941 271.974H600.863C600.557 272.364 600.241 272.687 599.916 272.94C599.59 273.194 599.213 273.383 598.783 273.507C598.36 273.637 597.842 273.702 597.23 273.702C596.586 273.702 596.009 273.585 595.502 273.351C594.994 273.11 594.593 272.745 594.3 272.257C594.008 271.769 593.861 271.15 593.861 270.401C593.861 269.288 594.274 268.451 595.101 267.892C595.935 267.332 597.191 267.022 598.871 266.964L600.746 266.896V266.329C600.746 265.58 600.57 265.047 600.218 264.728C599.873 264.409 599.385 264.249 598.754 264.249C598.213 264.249 597.689 264.327 597.181 264.483C596.674 264.64 596.179 264.832 595.697 265.06L594.955 263.438C595.482 263.159 596.081 262.931 596.752 262.755C597.429 262.579 598.132 262.491 598.861 262.491ZM600.736 268.341L599.34 268.39C598.194 268.429 597.39 268.624 596.927 268.976C596.465 269.327 596.234 269.809 596.234 270.421C596.234 270.955 596.394 271.345 596.713 271.593C597.032 271.834 597.452 271.954 597.972 271.954C598.767 271.954 599.424 271.729 599.945 271.28C600.472 270.825 600.736 270.157 600.736 269.278V268.341ZM609.857 273.702C608.568 273.702 607.533 273.233 606.752 272.296C605.977 271.352 605.59 269.962 605.59 268.126C605.59 266.271 605.983 264.868 606.771 263.917C607.565 262.966 608.61 262.491 609.906 262.491C610.453 262.491 610.931 262.566 611.342 262.716C611.752 262.859 612.103 263.054 612.396 263.302C612.696 263.549 612.95 263.826 613.158 264.132H613.265C613.233 263.93 613.194 263.64 613.148 263.263C613.109 262.879 613.09 262.524 613.09 262.198V258.312H615.394V273.507H613.597L613.187 272.032H613.09C612.894 272.345 612.647 272.628 612.347 272.882C612.054 273.129 611.703 273.328 611.293 273.478C610.889 273.627 610.411 273.702 609.857 273.702ZM610.502 271.837C611.485 271.837 612.178 271.554 612.582 270.987C612.985 270.421 613.194 269.571 613.207 268.438V268.136C613.207 266.925 613.011 265.997 612.621 265.353C612.23 264.701 611.517 264.376 610.482 264.376C609.655 264.376 609.024 264.711 608.588 265.382C608.158 266.046 607.943 266.974 607.943 268.165C607.943 269.356 608.158 270.268 608.588 270.899C609.024 271.524 609.662 271.837 610.502 271.837Z" fill="#6C6C6C"/>
<rect x="488.53" y="2.01598" width="109.9" height="175.749" rx="25.7922" stroke="#E3B6D0" stroke-width="3.96804"/>
<rect x="488.53" y="29.139" width="109.447" height="121.502" fill="white" stroke="#E3B6D0" stroke-width="3.96804"/>
<rect x="503.046" y="40.6412" width="81.9224" height="18.6347" rx="9.31735" stroke="#ABABAB" stroke-width="3.96804"/>
<rect x="526.301" y="82.7308" width="58.6918" height="2.86301" rx="1.43151" stroke="#ABABAB" stroke-width="2.86301"/>
<rect x="526.301" y="104.203" width="58.6918" height="2.86301" rx="1.43151" stroke="#ABABAB" stroke-width="2.86301"/>
<rect x="526.301" y="125.676" width="58.6918" height="2.86301" rx="1.43151" stroke="#ABABAB" stroke-width="2.86301"/>
<rect x="500.536" y="77.0083" width="14.3151" height="14.3151" rx="3.96804" fill="#707070"/>
<rect x="500.536" y="98.4814" width="14.3151" height="14.3151" rx="3.96804" fill="#707070"/>
<rect x="500.536" y="119.954" width="14.3151" height="14.3151" rx="3.96804" fill="#707070"/>
<defs>
<linearGradient id="paint0_linear_4_842" x1="109.417" y1="159.205" x2="109.417" y2="304.205" gradientUnits="userSpaceOnUse">
<stop stop-color="#D672AC"/>
<stop offset="1" stop-color="white" stop-opacity="0"/>
</linearGradient>
<linearGradient id="paint1_linear_4_842" x1="326.75" y1="159.206" x2="326.75" y2="304.206" gradientUnits="userSpaceOnUse">
<stop stop-color="#D672AC"/>
<stop offset="1" stop-color="#7D7575" stop-opacity="0"/>
</linearGradient>
<linearGradient id="paint2_linear_4_842" x1="543.624" y1="159.206" x2="543.624" y2="304.206" gradientUnits="userSpaceOnUse">
<stop stop-color="#D672AC"/>
<stop offset="1" stop-color="white" stop-opacity="0"/>
</linearGradient>
<clipPath id="clip0_4_842">
<rect width="45.8082" height="45.8082" fill="white" transform="translate(302.371 66.9868)"/>
</clipPath>
</defs>
</svg>
